Coordinates
version=1
nRows=14
nColumns=40
inDegrees=yes

Units are S.I. units (second, meters, Newtons, ...)
Angles are in degrees.

endheader
time	pelvis_tilt	pelvis_list	pelvis_rotation	pelvis_tx	pelvis_ty	pelvis_tz	hip_flexion_r	hip_adduction_r	hip_rotation_r	knee_angle_r	knee_angle_r_beta	ankle_angle_r	subtalar_angle_r	mtp_angle_r	hip_flexion_l	hip_adduction_l	hip_rotation_l	knee_angle_l	knee_angle_l_beta	ankle_angle_l	subtalar_angle_l	mtp_angle_l	lumbar_extension	lumbar_bending	lumbar_rotation	arm_flex_r	arm_add_r	arm_rot_r	elbow_flex_r	pro_sup_r	wrist_flex_r	wrist_dev_r	arm_flex_l	arm_add_l	arm_rot_l	elbow_flex_l	pro_sup_l	wrist_flex_l	wrist_dev_l
     48.85000000	     -3.19552378	     -5.05086457	      1.82352724	      1.04592686	      0.93062252	      0.49670870	     13.19962727	      2.66469168	    -17.75150157	     16.37406874	     16.37406874	      7.98640419	     -0.93514955	     -5.40068887	     28.67637027	    -13.41484403	      0.36544888	     59.66437041	     59.66437041	     10.42015342	    -18.10532362	     11.79955150	    -11.25850574	      7.10775844	      2.57785371	     21.23212445	    -17.05779796	     -5.82575298	     48.27832958	     45.44210301	      0.00000000	      0.00000000	     10.28577474	     -8.18810756	     -6.20361119	     32.96001157	     45.28027664	      0.00000000	      0.00000000
     48.86364286	     -3.35754148	     -4.89695697	      2.29223887	      1.04478338	      0.93127564	      0.49724524	     12.70351575	      2.63312486	    -17.91979690	     15.72056691	     15.72056691	      8.00235046	     -1.09070801	     -5.34156626	     29.86070781	    -13.23219651	      0.25803820	     56.96361847	     56.96361847	     10.62714708	    -18.24448681	     11.82889215	    -11.28056290	      6.85813812	      2.42682088	     23.13867505	    -17.15742066	     -5.94004720	     49.91898148	     45.40026322	      0.00000000	      0.00000000	      9.18255020	     -8.18468780	     -6.24267842	     32.15767810	     45.28614706	      0.00000000	      0.00000000
     48.87728571	     -3.50600975	     -4.77250028	      2.76539510	      1.04369051	      0.93185183	      0.49772774	     12.17377443	      2.62685008	    -18.19129175	     15.03657200	     15.03657200	      8.00477644	     -1.11301058	     -5.38780209	     30.80016502	    -13.01370869	      0.11398867	     53.88680291	     53.88680291	     10.69820015	    -18.28852511	     11.69785004	    -11.32092695	      6.65065639	      2.24209801	     24.96908675	    -17.31220854	     -5.92541553	     51.97374508	     45.33822170	      0.00000000	      0.00000000	      8.12181295	     -8.18161356	     -6.32242428	     31.20732590	     45.30241879	      0.00000000	      0.00000000
     48.89092857	     -3.70107067	     -4.68446469	      3.22717273	      1.04263119	      0.93219447	      0.49810561	     11.68313033	      2.65939062	    -18.45790372	     14.30267359	     14.30267359	      7.77934431	     -1.19769566	     -6.17109911	     31.53285874	    -12.77675570	     -0.07541607	     50.39098263	     50.39098263	     10.03988036	    -18.26841429	      9.82814187	    -11.35039693	      6.51065929	      2.80290285	     25.59317168	    -18.48577337	     -5.35364061	     56.17808381	     45.19565831	      0.00000000	      0.00000000	      7.83200975	     -7.77520557	     -7.05658041	     29.39939779	     45.52922180	      0.00000000	      0.00000000
     48.90457143	     -3.86535878	     -4.51552094	      3.64950001	      1.04155450	      0.93261114	      0.49832367	     11.24945231	      2.57124396	    -18.68575674	     13.77057299	     13.77057299	      7.85073340	     -1.22040281	     -6.14761933	     32.05219334	    -12.29510424	     -0.14883782	     46.74488591	     46.74488591	     10.05845886	    -17.98811888	     10.18003821	    -11.35250305	      6.25005744	      2.79264094	     27.47321594	    -18.63856647	     -5.52361006	     57.52025445	     45.16822682	      0.00000000	      0.00000000	      6.84347609	     -7.81652207	     -7.10368189	     28.70583339	     45.53291536	      0.00000000	      0.00000000
     48.91821429	     -4.08137866	     -4.37723093	      4.07984951	      1.04049321	      0.93284173	      0.49838379	     10.84313505	      2.51007793	    -18.94847599	     13.17121894	     13.17121894	      7.89833731	     -1.17610828	     -6.18312952	     32.47442576	    -11.74152547	     -0.10933427	     42.93667508	     42.93667508	     10.00530783	    -17.51155627	     10.37400518	    -11.36644454	      6.04469862	      2.65839664	     29.28030334	    -18.80955694	     -5.61590569	     59.18104773	     45.12647438	      0.00000000	      0.00000000	      5.85465328	     -7.82369260	     -7.18027186	     27.96817374	     45.54227872	      0.00000000	      0.00000000
     48.93185714	     -4.24017562	     -4.38611119	      4.53558864	      1.03954801	      0.93291152	      0.49827808	     10.37131924	      2.59107757	    -19.41997064	     12.53995974	     12.53995974	      7.71060032	     -0.99411364	     -6.90416461	     32.69476030	    -11.29942575	      0.00952433	     38.93682178	     38.93682178	      9.06973666	    -16.86568565	      8.44480674	    -11.44877669	      6.03632082	      2.97943651	     30.11201309	    -19.69140343	     -5.24762739	     63.09169048	     45.01004917	      0.00000000	      0.00000000	      5.31015447	     -7.64531163	     -7.93424746	     26.88100278	     45.73202864	      0.00000000	      0.00000000
     48.94550000	     -4.53156672	     -4.27000321	      4.89610273	      1.03855704	      0.93278311	      0.49797870	     10.11906755	      2.51739127	    -19.52653708	     12.08042115	     12.08042115	      7.83221773	     -1.06790738	     -6.93214074	     32.95901018	    -10.66846893	      0.18377944	     35.09980056	     35.09980056	      9.08703150	    -15.59752054	      8.80208478	    -11.31450790	      5.84970184	      2.99552528	     31.72250972	    -19.94012557	     -5.45078691	     64.22120188	     44.99038035	      0.00000000	      0.00000000	      4.46274782	     -7.60413645	     -8.00765223	     26.39095039	     45.73839352	      0.00000000	      0.00000000
     48.95914286	     -4.79609112	     -4.34142543	      5.30788621	      1.03762945	      0.93246578	      0.49755540	      9.89352522	      2.61888876	    -19.80194697	     11.71175658	     11.71175658	      7.95064839	     -1.14495366	     -7.01152672	     33.25337049	    -10.19610091	      0.51302821	     31.51898457	     31.51898457	      8.96080376	    -14.01831114	      9.17268128	    -11.15240810	      5.88025636	      3.06403934	     33.35454706	    -20.22657856	     -5.61017697	     65.46433824	     44.96429073	      0.00000000	      0.00000000	      3.63662500	     -7.55701732	     -8.08441946	     25.97865143	     45.74342523	      0.00000000	      0.00000000
     48.97278571	     -4.85673883	     -4.24157029	      5.64699795	      1.03702678	      0.93257786	      0.49706471	      9.27604600	      2.60876427	    -19.97580484	     11.06765254	     11.06765254	      8.01321211	     -1.01883251	     -7.16204942	     33.08981797	     -9.64395482	      0.59211494	     27.96593805	     27.96593805	      8.72469960	    -12.13118188	      9.39454791	    -11.29706996	      5.69180562	      2.75976288	     34.73534823	    -20.04427235	     -5.54348912	     67.67158675	     44.89900531	      0.00000000	      0.00000000	      2.64748669	     -7.71764202	     -8.29969191	     25.49325572	     45.77661022	      0.00000000	      0.00000000
     48.98642857	     -5.01229062	     -4.29017251	      5.99906231	      1.03639200	      0.93230078	      0.49636276	      8.84420481	      2.71135907	    -20.21356103	     10.56407515	     10.56407515	      8.07956246	     -0.94803436	     -7.39507680	     33.16284786	     -9.21276341	      0.76211431	     24.94546370	     24.94546370	      8.41687639	    -10.22079186	      9.60088729	    -11.27264723	      5.71837696	      2.73693964	     35.96156953	    -20.20193536	     -5.48812873	     69.82713188	     44.83733657	      0.00000000	      0.00000000	      1.80739423	     -7.72280853	     -8.57137217	     25.24983971	     45.82221011	      0.00000000	      0.00000000
     49.00007143	     -5.14241655	     -4.35797750	      6.30515559	      1.03586233	      0.93202560	      0.49558508	      8.40171830	      2.82877283	    -20.41037615	     10.09310278	     10.09310278	      8.10647160	     -0.85683476	     -7.66071390	     33.22247123	     -8.84507372	      0.82960804	     22.39765357	     22.39765357	      8.00697375	     -8.39919501	      9.83184001	    -11.29095677	      5.73808329	      2.77669788	     36.99064749	    -20.38132482	     -5.40863889	     72.17852800	     44.77058693	      0.00000000	      0.00000000	      1.06543547	     -7.68194933	     -8.92356793	     25.15304163	     45.88569460	      0.00000000	      0.00000000
     49.01371429	     -5.34763238	     -4.47583671	      6.55850695	      1.03541107	      0.93151298	      0.49475726	      8.12287247	      2.96624475	    -20.56580721	      9.79781311	      9.79781311	      8.27871991	     -0.85140561	     -7.82126983	     33.40769415	     -8.53145301	      0.92684661	     20.41459090	     20.41459090	      7.61956316	     -7.00441889	     10.15611783	    -11.11865951	      5.75918296	      2.94768360	     38.09022242	    -20.54066944	     -5.45090826	     73.63025471	     44.73397863	      0.00000000	      0.00000000	      0.43416135	     -7.63423223	     -9.11012868	     25.01507196	     45.91446776	      0.00000000	      0.00000000
     49.02735714	     -5.37238311	     -4.53571567	      6.80778303	      1.03523818	      0.93127115	      0.49372705	      7.52458361	      3.08790072	    -20.77553719	      9.29962755	      9.29962755	      8.38547476	     -0.65990363	     -8.07843324	     33.42879859	     -8.23923700	      0.74009469	     19.05441906	     19.05441906	      7.16455750	     -5.79073171	     10.16866851	    -11.22715401	      5.80299303	      2.95623895	     38.76892433	    -20.64713309	     -5.36652694	     76.67835461	     44.65075489	      0.00000000	      0.00000000	     -0.32704379	     -7.65519115	     -9.67716030	     25.13611730	     46.02054276	      0.00000000	      0.00000000
